<svg xmlns="http://www.w3.org/2000/svg" viewBox="0 0 200 200" width="200" height="200">
  <!-- Фон монеты -->
  <circle cx="100" cy="100" r="95" fill="#9945FF" />
  <circle cx="100" cy="100" r="85" fill="#14F195" />
  <circle cx="100" cy="100" r="80" fill="#0d1116" />
  
  <!-- Лицо мема -->
  <!-- Глаза -->
  <circle cx="70" cy="80" r="15" fill="#14F195" />
  <circle cx="130" cy="80" r="15" fill="#14F195" />
  <circle cx="70" cy="80" r="8" fill="#0d1116" />
  <circle cx="130" cy="80" r="8" fill="#0d1116" />
  <circle cx="73" cy="77" r="3" fill="white" />
  <circle cx="133" cy="77" r="3" fill="white" />
  
  <!-- Рот -->
  <path d="M70,130 Q100,170 130,130" stroke="#14F195" stroke-width="6" fill="none" />
  
  <!-- Текст внутри монеты -->
  <text x="100" y="55" font-family="Arial" font-size="22" font-weight="bold" fill="white" text-anchor="middle">MEMCOIN</text>
  
  <!-- Внешняя окружность с текстом -->
  <path id="circle-text-path" d="M100,25 a75,75 0 1,1 -1,0" fill="none" />
  <text fill="#14F195" font-size="14" font-family="Arial" font-weight="bold">
    <textPath href="#circle-text-path" startOffset="5%">TO THE MOON • SOLANA • TO THE MOON • SOLANA •</textPath>
  </text>
  
  <!-- Солнечные лучи -->
  <g stroke="#9945FF" stroke-width="4">
    <line x1="100" y1="5" x2="100" y2="20" />
    <line x1="140" y1="18" x2="130" y2="30" />
    <line x1="170" y1="50" x2="155" y2="60" />
    <line x1="185" y1="100" x2="165" y2="100" />
    <line x1="170" y1="150" x2="155" y2="140" />
    <line x1="140" y1="182" x2="130" y2="170" />
    <line x1="100" y1="195" x2="100" y2="180" />
    <line x1="60" y1="182" x2="70" y2="170" />
    <line x1="30" y1="150" x2="45" y2="140" />
    <line x1="15" y1="100" x2="35" y2="100" />
    <line x1="30" y1="50" x2="45" y2="60" />
    <line x1="60" y1="18" x2="70" y2="30" />
  </g>
</svg> 